<?xml version="1.0" encoding="UTF-8" standalone="no"?>
<!-- Created with Inkscape (http://www.inkscape.org/) -->

<svg
   xmlns:dc="http://purl.org/dc/elements/1.1/"
   xmlns:cc="http://creativecommons.org/ns#"
   xmlns:rdf="http://www.w3.org/1999/02/22-rdf-syntax-ns#"
   xmlns:svg="http://www.w3.org/2000/svg"
   xmlns="http://www.w3.org/2000/svg"
   xmlns:xlink="http://www.w3.org/1999/xlink"
   xmlns:sodipodi="http://sodipodi.sourceforge.net/DTD/sodipodi-0.dtd"
   xmlns:inkscape="http://www.inkscape.org/namespaces/inkscape"
   width="465"
   height="465.35999"
   id="svg4085"
   version="1.1"
   inkscape:version="0.48.4 r9939"
   sodipodi:docname="jalali-calendar.svg">
  <defs
     id="defs4087">
    <linearGradient
       id="linearGradient3182">
      <stop
         style="stop-color:#9fa09e;stop-opacity:0.21176471;"
         offset="0"
         id="stop3184" />
      <stop
         style="stop-color:#9fa09e;stop-opacity:0;"
         offset="1"
         id="stop3186" />
    </linearGradient>
    <linearGradient
       id="linearGradient3290">
      <stop
         style="stop-color:#545454;stop-opacity:1;"
         offset="0"
         id="stop3292" />
      <stop
         style="stop-color:#e7ff91;stop-opacity:0;"
         offset="1"
         id="stop3294" />
    </linearGradient>
    <linearGradient
       inkscape:collect="always"
       xlink:href="#linearGradient3352"
       id="linearGradient3358"
       x1="373.21429"
       y1="451.30414"
       x2="373.21429"
       y2="703.42914"
       gradientUnits="userSpaceOnUse" />
    <linearGradient
       id="linearGradient3352">
      <stop
         style="stop-color:#ffffff;stop-opacity:1;"
         offset="0"
         id="stop3354" />
      <stop
         style="stop-color:#ffffff;stop-opacity:0;"
         offset="1"
         id="stop3356" />
    </linearGradient>
    <linearGradient
       inkscape:collect="always"
       xlink:href="#linearGradient3352"
       id="linearGradient4059"
       x1="373.21429"
       y1="451.30414"
       x2="373.21429"
       y2="703.42914"
       gradientUnits="userSpaceOnUse" />
  </defs>
  <sodipodi:namedview
     id="base"
     pagecolor="#ffffff"
     bordercolor="#666666"
     borderopacity="1.0"
     inkscape:pageopacity="0.0"
     inkscape:pageshadow="2"
     inkscape:zoom="0.98994949"
     inkscape:cx="68.107165"
     inkscape:cy="210.1291"
     inkscape:document-units="px"
     inkscape:current-layer="g3715"
     showgrid="false"
     inkscape:window-width="1317"
     inkscape:window-height="744"
     inkscape:window-x="49"
     inkscape:window-y="24"
     inkscape:window-maximized="1"
     showguides="false"
     inkscape:snap-global="false">
    <inkscape:grid
       type="xygrid"
       id="grid4897"
       empspacing="5"
       visible="true"
       enabled="true"
       snapvisiblegridlinesonly="true" />
  </sodipodi:namedview>
  <metadata
     id="metadata4090">
    <rdf:RDF>
      <cc:Work
         rdf:about="">
        <dc:format>image/svg+xml</dc:format>
        <dc:type
           rdf:resource="http://purl.org/dc/dcmitype/StillImage" />
        <dc:title></dc:title>
      </cc:Work>
    </rdf:RDF>
  </metadata>
  <g
     inkscape:label="Layer 1"
     inkscape:groupmode="layer"
     id="layer1"
     transform="translate(0,-587.00148)">
    <g
       id="g3715"
       transform="translate(-137.85716,502.26106)">
      <path
         style="fill:#dfdbd2;fill-opacity:1;fill-rule:evenodd;stroke:#000000;stroke-opacity:0;stroke-width:5;stroke-miterlimit:4;stroke-dasharray:none"
         d="M 328.78125 5 C 324.86091 5 321.6875 8.14216 321.6875 12.0625 L 321.6875 20.625 L 367.21875 20.625 L 367.21875 12.0625 C 367.21875 8.14216 364.07659 5 360.15625 5 L 328.78125 5 z M 367.21875 20.625 L 367.21875 62.125 C 367.21875 66.04534 364.07659 69.1875 360.15625 69.1875 L 328.78125 69.1875 C 324.86091 69.1875 321.6875 66.04534 321.6875 62.125 L 321.6875 20.625 L 151.5625 20.625 L 151.5625 63.1875 C 151.5625 67.10784 148.38909 70.28125 144.46875 70.28125 L 113.09375 70.28125 C 109.17341 70.28125 106.03125 67.10784 106.03125 63.1875 L 106.03125 20.625 L 31.3125 20.625 C 23.372114 20.625 16.96875 27.028364 16.96875 34.96875 L 16.96875 136.34375 C 16.96875 144.28414 23.372114 150.6875 31.3125 150.6875 L 437.25 150.6875 C 445.19039 150.6875 451.59375 144.28414 451.59375 136.34375 L 451.59375 34.96875 C 451.59375 27.028364 445.19039 20.625 437.25 20.625 L 367.21875 20.625 z M 106.03125 20.625 L 151.5625 20.625 L 151.5625 13.15625 C 151.5625 9.23591 148.38909 6.0625 144.46875 6.0625 L 113.09375 6.0625 C 109.17341 6.0625 106.03125 9.23591 106.03125 13.15625 L 106.03125 20.625 z "
         transform="translate(137.85716,84.74042)"
         id="rect2390" />
      <g
         transform="matrix(1.1779146,0,0,1.1779146,115.42718,-219.34233)"
         id="g3346">
        <text
           id="text3342"
           y="600.47742"
           x="259.25684"
           style="font-size:207.54544067px;font-style:normal;font-weight:normal;opacity:0.5;fill:url(#linearGradient3358);fill-opacity:1;stroke:none;font-family:Bitstream Vera Sans"
           xml:space="preserve"><tspan
             style="font-style:normal;font-variant:normal;font-weight:normal;font-stretch:normal;fill:url(#linearGradient3358);fill-opacity:1;font-family:Tahoma;-inkscape-font-specification:Tahoma"
             y="600.47742"
             x="259.25684"
             id="tspan3344"
             sodipodi:role="line" /></text>
        <text
           xml:space="preserve"
           style="font-size:205.14056396px;font-style:normal;font-weight:normal;fill:#918a6f;fill-opacity:1;stroke:none;font-family:Bitstream Vera Sans"
           x="260.57727"
           y="599.02142"
           id="text3338"><tspan
             sodipodi:role="line"
             id="tspan3340"
             x="260.57727"
             y="599.02142"
             style="font-style:normal;font-variant:normal;font-weight:normal;font-stretch:normal;fill:#000000;fill-opacity:1;font-family:Tahoma;-inkscape-font-specification:Tahoma" /></text>
      </g>
      <path
         style="fill:#dfdbd2;fill-opacity:1;fill-rule:evenodd;stroke:none;stroke-width:5;stroke-miterlimit:4;stroke-opacity:1;stroke-dasharray:none"
         d="M 46.84375 172.1875 C 29.853167 172.1875 16.1875 185.85317 16.1875 202.84375 L 16.1875 419.78125 C 16.1875 436.77183 29.853167 450.4375 46.84375 450.4375 L 417.8125 450.4375 C 434.80308 450.4375 448.5 436.77183 448.5 419.78125 L 448.5 202.84375 C 448.5 185.85317 434.80308 172.1875 417.8125 172.1875 L 46.84375 172.1875 z M 285.78125 211.46875 C 300.46695 211.46894 312.19533 215.51939 320.96875 223.625 C 333.27036 234.97327 340.04142 248.57627 341.28125 264.40625 C 342.23475 277.28027 343.56461 290.88327 345.28125 305.1875 C 348.80952 334.46377 354.85476 365.68898 363.4375 398.875 L 335.40625 398.875 C 326.72818 359.5858 321.43839 331.11083 319.53125 313.46875 C 299.88655 313.46884 287.16078 312.62286 281.34375 310.90625 C 264.84604 306.04287 253.84347 300.96377 248.3125 295.71875 C 238.29945 286.08728 233.28124 275.41718 233.28125 263.6875 C 233.28124 250.05085 237.81557 238.6253 246.875 229.375 C 258.60452 217.4549 271.57222 211.46894 285.78125 211.46875 z M 101.40625 212.90625 L 129.4375 212.90625 C 140.97625 240.65682 150.22597 271.88202 157.1875 306.59375 C 160.23899 321.37497 161.7499 352.14755 161.75 398.875 L 136 398.875 C 135.99993 358.34609 134.24708 327.57351 130.71875 306.59375 C 126.04594 279.03418 116.2827 247.80898 101.40625 212.90625 z M 286.5 237.21875 C 278.96632 237.21891 272.46684 239.84899 267.03125 245.09375 C 261.69092 250.24346 259.03121 256.19817 259.03125 262.96875 C 259.03121 268.40453 261.90322 273.69431 267.625 278.84375 C 270.19973 281.13256 275.42863 283.24912 283.34375 285.15625 C 290.1144 286.77752 301.02643 287.59386 316.09375 287.59375 L 316.09375 275.125 C 316.09365 264.82601 314.00834 256.81563 309.8125 251.09375 C 303.0417 241.84377 295.27325 237.21891 286.5 237.21875 z "
         transform="translate(137.85716,84.74042)"
         id="rect2390-8" />
    </g>
  </g>
</svg>
