<?xml version="1.0" encoding="UTF-8" standalone="no"?>
<!-- Created with Inkscape (http://www.inkscape.org/) -->

<svg
   xmlns:dc="http://purl.org/dc/elements/1.1/"
   xmlns:cc="http://creativecommons.org/ns#"
   xmlns:rdf="http://www.w3.org/1999/02/22-rdf-syntax-ns#"
   xmlns:svg="http://www.w3.org/2000/svg"
   xmlns="http://www.w3.org/2000/svg"
   xmlns:xlink="http://www.w3.org/1999/xlink"
   version="1.0"
   width="256"
   height="256"
   id="svg11300"
   style="display:inline;enable-background:new">
  <defs
     id="defs3">
    <linearGradient
       x1="35"
       y1="156"
       x2="253"
       y2="156"
       id="linearGradient4254"
       xlink:href="#linearGradient3413"
       gradientUnits="userSpaceOnUse"
       gradientTransform="matrix(0,-1,1,0,-28,316.5)" />
    <linearGradient
       id="outerBackgroundGradient-7">
      <stop
         id="stop3864-8-6-5"
         style="stop-color:#207487;stop-opacity:1"
         offset="0" />
      <stop
         id="stop3866-9-1-2"
         style="stop-color:#3495a4;stop-opacity:1"
         offset="1" />
    </linearGradient>
    <linearGradient
       x1="397"
       y1="40"
       x2="397"
       y2="129"
       id="linearGradient3251"
       xlink:href="#linearGradient4395"
       gradientUnits="userSpaceOnUse"
       gradientTransform="matrix(2.1428571,0,0,2.1428571,-611.71429,-29.129047)" />
    <linearGradient
       id="linearGradient4395">
      <stop
         id="stop4397"
         style="stop-color:#ffffff;stop-opacity:1"
         offset="0" />
      <stop
         id="stop4399"
         style="stop-color:#fbfbfb;stop-opacity:1"
         offset="1" />
    </linearGradient>
    <linearGradient
       x1="397"
       y1="40"
       x2="397"
       y2="129"
       id="linearGradient8037"
       xlink:href="#linearGradient4395"
       gradientUnits="userSpaceOnUse"
       gradientTransform="matrix(2.1428571,0,0,2.1428571,-611.71428,-29.122534)" />
    <linearGradient
       x1="272"
       y1="288"
       x2="272"
       y2="32"
       id="linearGradient3876"
       xlink:href="#outerBackgroundGradient"
       gradientUnits="userSpaceOnUse"
       gradientTransform="translate(0,-4)" />
    <linearGradient
       id="outerBackgroundGradient">
      <stop
         id="stop3864-8-6"
         style="stop-color:#000000;stop-opacity:1"
         offset="0" />
      <stop
         id="stop3866-9-1"
         style="stop-color:#000000;stop-opacity:1"
         offset="1" />
    </linearGradient>
    <clipPath
       id="clipPath9090">
      <path
         d="M 84,46.5 C 56.568735,46.5 34.5,68.568732 34.5,96 l 0,120 c 0,27.43127 22.068735,49.5 49.5,49.5 l 120,0 c 27.43127,0 49.5,-22.06873 49.5,-49.5 l 0,-120 C 253.5,68.568732 231.43127,46.5 204,46.5 l -120,0 z"
         id="path9092"
         style="opacity:0.5;color:#bebebe;fill:#b63a3a;fill-opacity:1;fill-rule:nonzero;stroke:none;stroke-width:2;marker:none;visibility:visible;display:inline;overflow:visible;enable-background:accumulate" />
    </clipPath>
    <clipPath
       id="clipPath9094">
      <path
         d="m 310,32.5 c -9.70255,0 -17.5,7.797452 -17.5,17.5 l 0,52 c 0,9.70255 7.79745,17.5 17.5,17.5 l 52,0 c 9.70255,0 17.5,-7.79745 17.5,-17.5 l 0,-52 c 0,-9.702548 -7.79745,-17.5 -17.5,-17.5 l -52,0 z"
         id="path9096"
         style="opacity:0.5;color:#bebebe;fill:#b63a3a;fill-opacity:1;fill-rule:nonzero;stroke:none;stroke-width:2;marker:none;visibility:visible;display:inline;overflow:visible;enable-background:accumulate" />
    </clipPath>
    <clipPath
       id="clipPath9098">
      <path
         d="m 302.5,142.5 c -6.65502,0 -12,5.34498 -12,12 l 0,35 c 0,6.65502 5.34498,12 12,12 l 35,0 c 6.65502,0 12,-5.34498 12,-12 l 0,-35 c 0,-6.65502 -5.34498,-12 -12,-12 l -35,0 z"
         id="path9100"
         style="opacity:0.5;color:#bebebe;fill:#b63a3a;fill-opacity:1;fill-rule:nonzero;stroke:none;stroke-width:2;marker:none;visibility:visible;display:inline;overflow:visible;enable-background:accumulate" />
    </clipPath>
    <clipPath
       id="clipPath9102">
      <path
         d="m 300,223.5 c -4.71531,0 -8.5,3.78469 -8.5,8.5 l 0,24 c 0,4.71531 3.78469,8.5 8.5,8.5 l 24,0 c 4.71531,0 8.5,-3.78469 8.5,-8.5 l 0,-24 c 0,-4.71531 -3.78469,-8.5 -8.5,-8.5 l -24,0 z"
         id="path9104"
         style="opacity:0.5;color:#bebebe;fill:#b63a3a;fill-opacity:1;fill-rule:nonzero;stroke:none;stroke-width:2;marker:none;visibility:visible;display:inline;overflow:visible;enable-background:accumulate" />
    </clipPath>
    <clipPath
       id="clipPath9106">
      <path
         d="m 424,53.5 c -3.60654,0 -6.5,2.893464 -6.5,6.5 l 0,16 c 0,3.606536 2.89346,6.5 6.5,6.5 l 16,0 c 3.60654,0 6.5,-2.893464 6.5,-6.5 l 0,-16 c 0,-3.606536 -2.89346,-6.5 -6.5,-6.5 l -16,0 z"
         id="path9108"
         style="opacity:0.5;color:#bebebe;fill:#b63a3a;fill-opacity:1;fill-rule:nonzero;stroke:none;stroke-width:2;marker:none;visibility:visible;display:inline;overflow:visible;enable-background:accumulate" />
    </clipPath>
    <clipPath
       id="clipPath9110">
      <path
         d="m 422,101.5 c -2.49699,0 -4.5,2.00301 -4.5,4.5 l 0,12 c 0,2.49699 2.00301,4.5 4.5,4.5 l 12,0 c 2.49699,0 4.5,-2.00301 4.5,-4.5 l 0,-12 c 0,-2.49699 -2.00301,-4.5 -4.5,-4.5 l -12,0 z"
         id="path9112"
         style="opacity:0.5;color:#bebebe;fill:#b63a3a;fill-opacity:1;fill-rule:nonzero;stroke:none;stroke-width:2;marker:none;visibility:visible;display:inline;overflow:visible;enable-background:accumulate" />
    </clipPath>
    <clipPath
       id="clipPath9114">
      <path
         d="m 419,140.5 c -1.3844,0 -2.5,1.1156 -2.5,2.5 l 0,10 c 0,1.3844 1.1156,2.5 2.5,2.5 l 10,0 c 1.3844,0 2.5,-1.1156 2.5,-2.5 l 0,-10 c 0,-1.3844 -1.1156,-2.5 -2.5,-2.5 l -10,0 z"
         id="path9116"
         style="opacity:0.5;color:#bebebe;fill:#b63a3a;fill-opacity:1;fill-rule:nonzero;stroke:none;stroke-width:2;marker:none;visibility:visible;display:inline;overflow:visible;enable-background:accumulate" />
    </clipPath>
    <linearGradient
       x1="272"
       y1="288"
       x2="272"
       y2="32"
       id="linearGradient3111"
       xlink:href="#outerBackgroundGradient-9"
       gradientUnits="userSpaceOnUse"
       gradientTransform="translate(0,-4)" />
    <linearGradient
       id="outerBackgroundGradient-9">
      <stop
         id="stop3864-8-6-6"
         style="stop-color:#ededed;stop-opacity:1"
         offset="0" />
      <stop
         id="stop3866-9-1-1"
         style="stop-color:#ffffff;stop-opacity:1"
         offset="1" />
    </linearGradient>
    <clipPath
       id="clipPath11237">
      <path
         d="M 84,46.5 C 56.568735,46.5 34.5,68.568732 34.5,96 l 0,120 c 0,27.43127 22.068735,49.5 49.5,49.5 l 120,0 c 27.43127,0 49.5,-22.06873 49.5,-49.5 l 0,-120 C 253.5,68.568732 231.43127,46.5 204,46.5 l -120,0 z"
         id="path11239"
         style="opacity:0.5;color:#bebebe;fill:#b46464;fill-opacity:1;fill-rule:nonzero;stroke:none;stroke-width:2;marker:none;visibility:visible;display:inline;overflow:visible;enable-background:accumulate" />
    </clipPath>
    <clipPath
       id="clipPath11248">
      <path
         d="m 310,32.5 c -9.70255,0 -17.5,7.797452 -17.5,17.5 l 0,52 c 0,9.70255 7.79745,17.5 17.5,17.5 l 52,0 c 9.70255,0 17.5,-7.79745 17.5,-17.5 l 0,-52 c 0,-9.702548 -7.79745,-17.5 -17.5,-17.5 l -52,0 z"
         id="path11250"
         style="opacity:0.5;color:#bebebe;fill:#b46464;fill-opacity:1;fill-rule:nonzero;stroke:none;stroke-width:2;marker:none;visibility:visible;display:inline;overflow:visible;enable-background:accumulate" />
    </clipPath>
    <clipPath
       id="clipPath11256">
      <path
         d="m 302.5,142.5 c -6.65502,0 -12,5.34498 -12,12 l 0,35 c 0,6.65502 5.34498,12 12,12 l 35,0 c 6.65502,0 12,-5.34498 12,-12 l 0,-35 c 0,-6.65502 -5.34498,-12 -12,-12 l -35,0 z"
         id="path11258"
         style="opacity:0.5;color:#bebebe;fill:#b46464;fill-opacity:1;fill-rule:nonzero;stroke:none;stroke-width:2;marker:none;visibility:visible;display:inline;overflow:visible;enable-background:accumulate" />
    </clipPath>
    <clipPath
       id="clipPath11264">
      <path
         d="m 300,223.5 c -4.71531,0 -8.5,3.78469 -8.5,8.5 l 0,24 c 0,4.71531 3.78469,8.5 8.5,8.5 l 24,0 c 4.71531,0 8.5,-3.78469 8.5,-8.5 l 0,-24 c 0,-4.71531 -3.78469,-8.5 -8.5,-8.5 l -24,0 z"
         id="path11266"
         style="opacity:0.5;color:#bebebe;fill:#b46464;fill-opacity:1;fill-rule:nonzero;stroke:none;stroke-width:2;marker:none;visibility:visible;display:inline;overflow:visible;enable-background:accumulate" />
    </clipPath>
    <clipPath
       id="clipPath11272">
      <path
         d="m 419,140.5 c -1.3844,0 -2.5,1.1156 -2.5,2.5 l 0,10 c 0,1.3844 1.1156,2.5 2.5,2.5 l 10,0 c 1.3844,0 2.5,-1.1156 2.5,-2.5 l 0,-10 c 0,-1.3844 -1.1156,-2.5 -2.5,-2.5 l -10,0 z"
         id="path11274"
         style="opacity:0.5;color:#bebebe;fill:#b46464;fill-opacity:1;fill-rule:nonzero;stroke:none;stroke-width:2;marker:none;visibility:visible;display:inline;overflow:visible;enable-background:accumulate" />
    </clipPath>
    <clipPath
       id="clipPath11284">
      <path
         d="m 422,101.5 c -2.49699,0 -4.5,2.00301 -4.5,4.5 l 0,12 c 0,2.49699 2.00301,4.5 4.5,4.5 l 12,0 c 2.49699,0 4.5,-2.00301 4.5,-4.5 l 0,-12 c 0,-2.49699 -2.00301,-4.5 -4.5,-4.5 l -12,0 z"
         id="path11286"
         style="opacity:0.5;color:#bebebe;fill:#b46464;fill-opacity:1;fill-rule:nonzero;stroke:none;stroke-width:2;marker:none;visibility:visible;display:inline;overflow:visible;enable-background:accumulate" />
    </clipPath>
    <clipPath
       id="clipPath11292">
      <path
         d="m 424,53.5 c -3.60654,0 -6.5,2.893464 -6.5,6.5 l 0,16 c 0,3.606536 2.89346,6.5 6.5,6.5 l 16,0 c 3.60654,0 6.5,-2.893464 6.5,-6.5 l 0,-16 c 0,-3.606536 -2.89346,-6.5 -6.5,-6.5 l -16,0 z"
         id="path11294"
         style="opacity:0.5;color:#bebebe;fill:#b46464;fill-opacity:1;fill-rule:nonzero;stroke:none;stroke-width:2;marker:none;visibility:visible;display:inline;overflow:visible;enable-background:accumulate" />
    </clipPath>
    <clipPath
       id="clipPath4130">
      <path
         d="M 790.4375,237 C 789.62555,237 789,237.62555 789,238.4375 l 0,35.09375 c 0,0.812 0.62555,1.46875 1.4375,1.46875 l 35.125,0 c 0.81195,0 1.4375,-0.65675 1.4375,-1.46875 l 0,-35.09375 C 827,237.62555 826.37445,237 825.5625,237 l -35.125,0 z"
         id="path4132"
         style="fill:#ba2222;fill-opacity:1;stroke:none" />
    </clipPath>
    <clipPath
       id="clipPath4130-3">
      <path
         d="M 790.4375,237 C 789.62555,237 789,237.62555 789,238.4375 l 0,35.09375 c 0,0.812 0.62555,1.46875 1.4375,1.46875 l 35.125,0 c 0.81195,0 1.4375,-0.65675 1.4375,-1.46875 l 0,-35.09375 C 827,237.62555 826.37445,237 825.5625,237 l -35.125,0 z"
         id="path4132-1"
         style="fill:#ba2222;fill-opacity:1;stroke:none" />
    </clipPath>
    <linearGradient
       id="linearGradient3413">
      <stop
         id="stop3415"
         style="stop-color:#ffffff;stop-opacity:1"
         offset="0" />
      <stop
         id="stop3417"
         style="stop-color:#ffffff;stop-opacity:1"
         offset="1" />
    </linearGradient>
    <linearGradient
       x1="34.5"
       y1="72.25"
       x2="253.5"
       y2="72.25"
       id="linearGradient4067"
       xlink:href="#outerBackgroundGradient"
       gradientUnits="userSpaceOnUse" />
    <linearGradient
       x1="292.5"
       y1="42.75"
       x2="379.5"
       y2="42.75"
       id="linearGradient4075"
       xlink:href="#outerBackgroundGradient"
       gradientUnits="userSpaceOnUse" />
    <linearGradient
       x1="290.5"
       y1="149.75"
       x2="349.5"
       y2="149.75"
       id="linearGradient4083"
       xlink:href="#outerBackgroundGradient"
       gradientUnits="userSpaceOnUse" />
    <linearGradient
       x1="291.5"
       y1="228.75"
       x2="332.5"
       y2="228.75"
       id="linearGradient4091"
       xlink:href="#outerBackgroundGradient"
       gradientUnits="userSpaceOnUse" />
    <linearGradient
       x1="417.5"
       y1="57.25"
       x2="446.5"
       y2="57.25"
       id="linearGradient3989"
       xlink:href="#outerBackgroundGradient"
       gradientUnits="userSpaceOnUse" />
    <linearGradient
       x1="417.5"
       y1="104.25"
       x2="438.5"
       y2="104.25"
       id="linearGradient3997"
       xlink:href="#outerBackgroundGradient"
       gradientUnits="userSpaceOnUse" />
    <linearGradient
       x1="416.5"
       y1="142.75"
       x2="431.5"
       y2="142.75"
       id="linearGradient4005"
       xlink:href="#outerBackgroundGradient"
       gradientUnits="userSpaceOnUse" />
    <linearGradient
       x1="34.5"
       y1="72.25"
       x2="253.5"
       y2="72.25"
       id="linearGradient3397"
       xlink:href="#outerBackgroundGradient"
       gradientUnits="userSpaceOnUse" />
    <linearGradient
       x1="34.5"
       y1="72.25"
       x2="253.5"
       y2="72.25"
       id="linearGradient3399"
       xlink:href="#outerBackgroundGradient"
       gradientUnits="userSpaceOnUse" />
    <linearGradient
       x1="34.5"
       y1="72.25"
       x2="253.5"
       y2="72.25"
       id="linearGradient3401"
       xlink:href="#outerBackgroundGradient"
       gradientUnits="userSpaceOnUse" />
  </defs>
  <metadata
     id="metadata4">
    <rdf:RDF>
      <cc:Work
         rdf:about="">
        <dc:format>image/svg+xml</dc:format>
        <dc:type
           rdf:resource="http://purl.org/dc/dcmitype/StillImage" />
        <dc:creator>
          <cc:Agent>
            <dc:title>Sam Hewitt</dc:title>
          </cc:Agent>
        </dc:creator>
        <dc:source />
        <cc:license
           rdf:resource="" />
        <dc:title></dc:title>
        <dc:subject>
          <rdf:Bag />
        </dc:subject>
        <dc:date />
        <dc:rights>
          <cc:Agent>
            <dc:title />
          </cc:Agent>
        </dc:rights>
        <dc:publisher>
          <cc:Agent>
            <dc:title />
          </cc:Agent>
        </dc:publisher>
        <dc:identifier />
        <dc:relation />
        <dc:language />
        <dc:coverage />
        <dc:description />
        <dc:contributor>
          <cc:Agent>
            <dc:title />
          </cc:Agent>
        </dc:contributor>
      </cc:Work>
      <cc:Work
         rdf:about="">
        <dc:format>image/svg+xml</dc:format>
        <dc:type
           rdf:resource="http://purl.org/dc/dcmitype/StillImage" />
      </cc:Work>
    </rdf:RDF>
  </metadata>
  <g
     transform="translate(0,-44)"
     id="layer7"
     style="display:none">
    <rect
       width="256"
       height="256"
       x="0"
       y="45"
       id="rect256x256"
       style="fill:#eeeeec;fill-opacity:1;fill-rule:nonzero;stroke:none;stroke-width:2;marker:none;visibility:visible;display:inline;overflow:visible;enable-background:accumulate" />
  </g>
  <g
     transform="translate(0,-44)"
     id="layer4"
     style="display:inline">
    <rect
       width="220"
       height="220"
       ry="50"
       x="18"
       y="63"
       id="rect4114"
       style="opacity:0.1;color:#bebebe;fill:#000000;fill-opacity:1;fill-rule:nonzero;stroke:none;stroke-width:0;marker:none;visibility:visible;display:inline;overflow:visible;enable-background:accumulate" />
  </g>
  <g
     transform="translate(0,-44)"
     id="layer2"
     style="display:inline">
    <path
       d="m 18.5,112.5 0,120 c 0,27.43127 22.06873,49.5 49.5,49.5 l 120,0 c 27.43127,0 49.5,-22.06873 49.5,-49.5 l 0,-120 -219,0 z"
       id="path4200"
       style="color:#bebebe;fill:url(#linearGradient4254);fill-opacity:1;fill-rule:nonzero;stroke:none;stroke-width:2;marker:none;visibility:visible;display:inline;overflow:visible;enable-background:accumulate" />
    <g
       transform="translate(-16,16.5)"
       clip-path="url(#clipPath11237)"
       id="g11233"
       style="fill:url(#linearGradient3401);fill-opacity:1;display:inline;enable-background:new">
      <rect
         width="256"
         height="68"
         x="16"
         y="30"
         id="rect5564"
         style="color:#000000;fill:url(#linearGradient3397);fill-opacity:1;fill-rule:nonzero;stroke:none;stroke-width:4;marker:none;visibility:visible;display:inline;overflow:visible;enable-background:new" />
      <rect
         width="256"
         height="68"
         x="16"
         y="28"
         id="rect3904-8"
         style="color:#000000;fill:url(#linearGradient3399);fill-opacity:1;fill-rule:nonzero;stroke:none;stroke-width:4;marker:none;visibility:visible;display:inline;overflow:visible;enable-background:new" />
    </g>
    <rect
       width="218.14786"
       height="218.14786"
       rx="48"
       ry="48"
       x="18.426069"
       y="63.426071"
       id="rect4171"
       style="fill:none;stroke:#888888;stroke-width:0.85214007;stroke-miterlimit:4;stroke-opacity:1;stroke-dasharray:none" />
  </g>
  <g
     transform="translate(0,-44)"
     id="layer6"
     style="display:inline">
    <g
       transform="matrix(2.2710789,0,0,2.2710789,687.43331,-163.51513)"
       id="g4123"
       style="fill:#000000;fill-opacity:1">
      <g
         transform="translate(1.5610887e-5,-1.0067087e-5)"
         id="g3152"
         style="fill:#000000;fill-opacity:1">
        <g
           id="text3132-61"
           style="font-size:42.5006485px;font-style:normal;font-weight:normal;line-height:125%;letter-spacing:0px;word-spacing:0px;fill:#000000;stroke:none;display:inline;enable-background:new;font-family:Sans">
          <path
             d="m -231.35137,181.08274 c 0.39429,-1.49416 0.97536,-2.49027 1.72244,-3.00907 3.36186,-2.84306 5.9144,-4.27497 7.65759,-4.27497 0.5188,0.0207 0.78858,0.16602 0.85084,0.41504 0,0.97536 -0.76784,2.30351 -2.32425,3.98444 -1.59793,1.59792 -3.11285,2.80156 -4.50325,3.61089 -1.47341,0.85085 -2.57328,1.32815 -3.29961,1.45266 -0.10376,-0.4773 -0.16602,-0.9546 -0.16602,-1.41115 l 0,-0.14527 0.0623,-0.62257 m -3.09209,2.44877 c -0.89234,-0.31128 -1.4319,-1.22438 -1.59792,-2.69779 l 0,-0.4773 c 0,-1.88846 1.55642,-4.64852 4.64851,-8.32166 1.59792,-1.63943 2.38651,-2.7393 2.38651,-3.29962 l 0,-0.31128 c -0.24903,-0.85084 -0.72633,-1.28664 -1.43191,-1.28664 l -0.56031,0 -0.64332,0.24903 c -5.0843,5.37483 -7.61608,9.77432 -7.61608,13.21919 l 0,0.22828 0.16601,1.76394 c 0.72633,2.22049 1.59793,3.54864 2.65629,3.98444 0.78859,0.45655 2.03373,0.60181 3.75617,0.43579 2.01296,-0.18677 5.02205,-1.68093 9.04798,-4.48249 4.00519,-3.21659 6.01816,-5.9974 6.01816,-8.34241 l -0.10376,-0.93385 c -0.5188,-1.74319 -1.53567,-2.61479 -3.05058,-2.61479 l -0.20752,0 c -1.03762,0 -2.44877,0.41505 -4.25422,1.24514 -1.63943,0.80934 -3.2166,1.74319 -4.69001,2.80156 -3.29961,2.13748 -4.9598,4.48249 -4.9598,7.01426 l 0,0.14527 c 0,0.26978 0.14527,0.83009 0.4358,1.68093 m 33.63943,-30.27756 c -3.85992,3.54864 -8.05188,6.20493 -12.55512,7.96887 -4.50324,1.76394 -7.55383,2.63554 -9.15175,2.63554 l -0.083,0 c 0.10376,-0.24903 0.83009,-1.01686 2.17899,-2.32425 l 0.083,0 c 0.66407,0.4773 1.20363,0.72633 1.59792,0.72633 l 0.14527,0 c 0.74708,0 1.76394,-0.45655 3.05058,-1.36965 2.69779,-2.24125 4.04669,-3.81842 4.04669,-4.71077 l 0,-0.22827 -0.0623,-0.58107 c -0.60182,-1.26588 -1.3074,-1.88845 -2.09598,-1.88845 l -0.4358,0 c -1.07912,0 -3.07134,1.45266 -5.9559,4.35797 -2.67704,2.6978 -4.27497,4.77303 -4.79378,6.24644 -0.76783,0.45655 -1.16212,0.93385 -1.16212,1.45265 l 0,0.35279 c 0.20752,0.97536 0.66407,1.45266 1.3904,1.45266 2.01297,-0.29053 3.11284,-0.4773 3.32036,-0.58106 5.78988,-0.74708 12.7419,-3.83918 20.85603,-9.29702 1.3904,-1.30739 2.09598,-2.22049 2.09598,-2.76005 l 0,-0.4358 c -0.29053,-0.87159 -0.83009,-1.30739 -1.59792,-1.30739 l -0.8716,0.29053"
             id="path3084"
             style="font-variant:normal;font-stretch:normal;fill:#000000;font-family:dastnevis;-inkscape-font-specification:dastnevis" />
          <path
             d="m -249.11531,175.16835 c -0.18677,0 -0.37355,0.0415 -0.56032,0.12451 l -0.35278,0.16602 -0.18677,0 c -0.26978,0 -0.95461,0.18677 -2.09598,0.58106 -1.32815,0.45655 -2.46952,0.95461 -3.40338,1.51492 -0.97535,0.51881 -1.97146,1.22438 -2.98832,2.09598 -1.41116,1.09987 -2.11673,2.3035 -2.11673,3.61089 0,0.8716 0.31128,1.66019 0.93385,2.38651 0.49805,0.47731 0.9546,0.80934 1.3489,0.95461 0.68482,0.41504 2.44877,0.62257 5.29182,0.62257 l 0.83009,0 c 3.02983,0 5.4371,-0.53956 7.24255,-1.63943 1.24513,-0.85084 1.8677,-2.09598 1.8677,-3.69391 0,-1.16212 -0.31128,-2.19974 -0.9131,-3.09208 -0.20752,-0.37355 -0.85084,-1.05837 -1.95071,-2.03373 -1.41115,-1.05836 -2.38651,-1.59792 -2.94682,-1.59792 m 0.56031,3.56939 c 0.35279,0.22827 0.85084,0.66407 1.45266,1.28664 0.5188,0.51881 0.78858,1.09987 0.78858,1.78469 l 0,0.14527 c 0,0.39429 -0.12451,0.74708 -0.35279,1.01686 -1.26588,0.83009 -3.29961,1.24514 -6.10116,1.24514 l -0.3943,0 c -2.26199,-0.0415 -3.52788,-0.12452 -3.77691,-0.22828 -0.58106,-0.18677 -0.8716,-0.41504 -0.8716,-0.68482 l 0,-0.0207 c 0,-0.26978 0.20753,-0.60182 0.64332,-0.99611 1.09987,-0.95461 2.11674,-1.68094 3.02984,-2.17899 0.9546,-0.51881 2.11673,-1.01686 3.50713,-1.45266 0.68482,-0.16602 1.09987,-0.31128 1.24514,-0.41505 l 0.83009,0.49806"
             id="path3086"
             style="font-variant:normal;font-stretch:normal;fill:#000000;font-family:dastnevis;-inkscape-font-specification:dastnevis" />
        </g>
        <g
           id="text3132-0"
           style="font-size:42.5006485px;font-style:normal;font-weight:normal;line-height:125%;letter-spacing:0px;word-spacing:0px;fill:#000000;stroke:none;display:inline;enable-background:new;font-family:Sans">
          <path
             d="m -238.60428,130.47833 c -1.05837,0.14526 -1.57718,0.60181 -1.57718,1.41115 0.22828,1.59793 0.85085,2.40727 1.90921,2.40727 l 0.41505,0 c 1.22438,-0.26978 1.8262,-0.72633 1.8262,-1.41116 l 0,-0.41504 c -0.70558,-1.32815 -1.55642,-1.99222 -2.57328,-1.99222 m 6.41245,9.67056 c -5.66537,0.33203 -9.5253,0.66407 -11.62127,0.9961 -1.49417,0.31129 -2.24125,0.93386 -2.24125,1.8262 0,0.72633 0.66407,1.07912 1.99222,1.07912 l 0.16602,0 c 8.03112,-0.78858 12.11932,-1.4319 12.24384,-1.90921 l 0.53956,-1.41115 c -0.22828,-0.39429 -0.60182,-0.58106 -1.07912,-0.58106 m 2.61478,14.02853 c -0.4773,-2.11673 -1.92996,-2.15823 -4.39948,-0.14527 -2.46952,2.01297 -5.62387,3.40338 -9.48379,4.15046 -3.83916,0.72633 -7.28405,0.80934 -10.29312,0.24903 -0.8716,0 -1.41116,0.5188 -1.59793,1.57717 0,0.43579 0.16602,0.80934 0.47731,1.09987 0,0.45655 1.01686,0.78858 3.02983,0.97535 2.01297,0.18677 5.02205,-0.083 9.02724,-0.85084 4.00518,-0.76783 7.24254,-1.88846 9.67055,-3.38262 2.44877,-1.49416 3.63165,-2.69779 3.56939,-3.61089 l 0,-0.0623"
             id="path3089"
             style="font-variant:normal;font-stretch:normal;fill:#000000;font-family:dastnevis;-inkscape-font-specification:dastnevis" />
          <path
             d="m -257.32283,150.02697 c -1.49416,0 -2.90532,0.9546 -4.21271,2.88456 -1.30739,1.92996 -2.28275,3.27886 -2.90532,4.04669 -0.62257,0.76784 -1.20363,1.20364 -1.72244,1.26589 -0.5188,0.0623 -0.99611,0.22828 -1.4319,0.51881 -0.4358,0.26978 -0.64332,0.78859 -0.60182,1.55642 0.0208,0.74708 0.4773,1.24514 1.3489,1.47341 1.05836,0.16602 2.24124,-0.51881 3.50713,-2.03372 0.64332,1.26589 1.8262,1.97146 3.54864,2.11673 1.57717,-0.0415 2.80156,-0.51881 3.67315,-1.45266 0.29053,0.35279 0.62257,0.66407 0.99611,0.89235 1.3904,0.83009 2.38651,0.5188 2.88457,-0.45655 0.24902,-0.49806 0.24902,-0.99611 0.0207,-1.51492 -0.22828,-0.5188 -0.51881,-0.78858 -0.9131,-0.80934 -0.3943,-0.0415 -0.78859,-0.16601 -1.18288,-0.39429 -0.14527,-0.083 -0.24903,-0.22827 -0.31129,-0.45655 0.24903,-0.80934 0.3943,-1.63943 0.41505,-2.53178 0.0623,-1.66018 -0.20752,-2.92607 -0.80934,-3.79766 -0.58106,-0.8716 -1.30739,-1.30739 -2.19974,-1.30739 l -0.10376,0 m -4.0882,7.71984 c 0.14527,-0.37354 0.66408,-1.18288 1.59793,-2.42802 0.93385,-1.24513 1.68093,-1.74319 2.26199,-1.49416 0.58107,0.24903 0.89235,0.83009 0.93386,1.74319 0.0623,0.89235 -0.29054,1.70169 -1.05837,2.42802 -0.74708,0.70557 -1.51492,0.9546 -2.3035,0.74708 -0.78859,-0.20752 -1.26589,-0.53956 -1.43191,-0.99611"
             id="path3091"
             style="font-variant:normal;font-stretch:normal;fill:#000000;font-family:dastnevis;-inkscape-font-specification:dastnevis" />
          <path
             d="m -265.10493,142.16186 c -5.0843,5.37483 -7.61609,9.77432 -7.61609,13.21919 l 0,0.22828 0.16602,1.76394 c 0.95461,2.94682 2.76006,4.42023 5.4371,4.42023 1.18288,-0.10376 1.76394,-0.60181 1.76394,-1.45266 l 0,-0.4773 c 0,-0.9546 -0.58106,-1.4319 -1.76394,-1.4319 -1.3904,0 -2.17899,-0.93386 -2.38651,-2.82231 l 0,-0.47731 c 0,-1.88845 1.55642,-4.64851 4.6485,-8.32166 1.59793,-1.63942 2.38652,-2.7393 2.38652,-3.29961 l 0,-0.31128 c -0.24903,-0.85084 -0.72633,-1.28664 -1.43191,-1.28664 l -0.56031,0 -0.64332,0.24903"
             id="path3093"
             style="font-variant:normal;font-stretch:normal;fill:#000000;font-family:dastnevis;-inkscape-font-specification:dastnevis" />
          <path
             d="m -274.77549,149.77794 c -0.53956,0 -0.97536,0.20752 -1.32814,0.64332 -1.43191,2.51102 -2.94683,4.98055 -4.54475,7.38781 -1.26589,1.88845 -2.80156,3.88067 -4.60701,6.01816 -0.64332,0.83009 -2.17899,2.49027 -4.6485,4.95979 -2.34501,2.28275 -3.50714,3.44487 -3.50714,3.48638 -0.60181,0.51881 -0.9131,1.01686 -0.9131,1.51491 l 0,0.12452 c 0,0.14526 0.0415,0.31128 0.10376,0.49805 0.33204,0.68483 0.80934,1.03762 1.45266,1.03762 0.26978,0 0.47731,-0.0415 0.64332,-0.12452 0.18677,0 0.53956,-0.29053 1.05837,-0.89234 1.12062,-1.18288 2.40726,-2.55254 3.83917,-4.12971 3.2581,-3.65239 5.99741,-6.93126 8.2179,-9.85732 1.24513,-1.47341 2.15823,-2.6978 2.71855,-3.69391 0.89234,-1.30739 1.70168,-2.61479 2.46952,-3.90143 0.41504,-0.60181 0.62256,-1.07911 0.62256,-1.4319 l 0,-0.0623 c 0,-0.22827 -0.0415,-0.45655 -0.14526,-0.64332 -0.35279,-0.62257 -0.83009,-0.93385 -1.43191,-0.93385"
             id="path3095"
             style="font-variant:normal;font-stretch:normal;fill:#000000;font-family:dastnevis;-inkscape-font-specification:dastnevis" />
        </g>
      </g>
    </g>
  </g>
  <g
     transform="translate(0,-44)"
     id="layer5"
     style="display:inline" />
  <g
     transform="translate(0,-44)"
     id="layer3"
     style="display:inline" />
</svg>
